<mxfile host="app.diagrams.net" modified="2022-09-12T14:40:30.225Z" agent="5.0 (Windows NT 10.0; Win64; x64) AppleWebKit/537.36 (KHTML, like Gecko) Chrome/105.0.0.0 Safari/537.36" etag="HMtilGwEC3nrdeGr9Ehu" version="20.3.0" type="github">
  <diagram id="C5RBs43oDa-KdzZeNtuy" name="Page-1">
    <mxGraphModel dx="1597" dy="842" grid="1" gridSize="10" guides="1" tooltips="1" connect="1" arrows="1" fold="1" page="1" pageScale="1" pageWidth="827" pageHeight="1169" math="0" shadow="0">
      <root>
        <mxCell id="WIyWlLk6GJQsqaUBKTNV-0" />
        <mxCell id="WIyWlLk6GJQsqaUBKTNV-1" parent="WIyWlLk6GJQsqaUBKTNV-0" />
        <mxCell id="CwfMdXBka9Mv6ZWWtT7S-9" value="" style="edgeStyle=orthogonalEdgeStyle;rounded=0;orthogonalLoop=1;jettySize=auto;html=1;" edge="1" parent="WIyWlLk6GJQsqaUBKTNV-1" source="WIyWlLk6GJQsqaUBKTNV-3" target="CwfMdXBka9Mv6ZWWtT7S-8">
          <mxGeometry relative="1" as="geometry" />
        </mxCell>
        <mxCell id="WIyWlLk6GJQsqaUBKTNV-3" value="&lt;font style=&quot;font-size: 16px;&quot;&gt;start&lt;/font&gt;" style="rounded=1;whiteSpace=wrap;html=1;fontSize=12;glass=0;strokeWidth=1;shadow=0;" parent="WIyWlLk6GJQsqaUBKTNV-1" vertex="1">
          <mxGeometry x="160" y="80" width="120" height="40" as="geometry" />
        </mxCell>
        <mxCell id="CwfMdXBka9Mv6ZWWtT7S-2" value="Green&#xa;light  func" style="swimlane;startSize=40;horizontal=1;childLayout=treeLayout;horizontalTree=0;resizable=0;containerType=tree;verticalAlign=bottom;textDirection=rtl;" vertex="1" parent="WIyWlLk6GJQsqaUBKTNV-1">
          <mxGeometry x="30" y="220" width="160" height="380" as="geometry" />
        </mxCell>
        <mxCell id="CwfMdXBka9Mv6ZWWtT7S-10" value="&lt;span&gt;Green LED on&amp;nbsp;&lt;/span&gt;" style="rounded=0;whiteSpace=wrap;html=1;fontSize=16;" vertex="1" parent="CwfMdXBka9Mv6ZWWtT7S-2">
          <mxGeometry x="20" y="60" width="120" height="30" as="geometry" />
        </mxCell>
        <mxCell id="CwfMdXBka9Mv6ZWWtT7S-11" value="" style="edgeStyle=orthogonalEdgeStyle;rounded=0;orthogonalLoop=1;jettySize=auto;html=1;" edge="1" source="CwfMdXBka9Mv6ZWWtT7S-10" target="CwfMdXBka9Mv6ZWWtT7S-12" parent="CwfMdXBka9Mv6ZWWtT7S-2">
          <mxGeometry relative="1" as="geometry" />
        </mxCell>
        <mxCell id="CwfMdXBka9Mv6ZWWtT7S-12" value="&lt;span&gt;Buzzer Play song&amp;nbsp;&lt;/span&gt;" style="rounded=0;whiteSpace=wrap;html=1;fontSize=16;" vertex="1" parent="CwfMdXBka9Mv6ZWWtT7S-2">
          <mxGeometry x="20" y="140" width="120" height="40" as="geometry" />
        </mxCell>
        <mxCell id="CwfMdXBka9Mv6ZWWtT7S-13" value="" style="edgeStyle=orthogonalEdgeStyle;rounded=0;orthogonalLoop=1;jettySize=auto;html=1;" edge="1" target="CwfMdXBka9Mv6ZWWtT7S-14" source="CwfMdXBka9Mv6ZWWtT7S-12" parent="CwfMdXBka9Mv6ZWWtT7S-2">
          <mxGeometry relative="1" as="geometry">
            <mxPoint x="110" y="310" as="sourcePoint" />
          </mxGeometry>
        </mxCell>
        <mxCell id="CwfMdXBka9Mv6ZWWtT7S-14" value="&lt;span&gt;Buzzer end song ?&amp;nbsp;&lt;br&gt;&lt;/span&gt;" style="rounded=0;whiteSpace=wrap;html=1;fontSize=16;" vertex="1" parent="CwfMdXBka9Mv6ZWWtT7S-2">
          <mxGeometry x="20" y="230" width="120" height="40" as="geometry" />
        </mxCell>
        <mxCell id="CwfMdXBka9Mv6ZWWtT7S-15" value="" style="edgeStyle=orthogonalEdgeStyle;rounded=0;orthogonalLoop=1;jettySize=auto;html=1;" edge="1" target="CwfMdXBka9Mv6ZWWtT7S-16" source="CwfMdXBka9Mv6ZWWtT7S-14" parent="CwfMdXBka9Mv6ZWWtT7S-2">
          <mxGeometry relative="1" as="geometry">
            <mxPoint x="110" y="400" as="sourcePoint" />
          </mxGeometry>
        </mxCell>
        <mxCell id="CwfMdXBka9Mv6ZWWtT7S-16" value="Green LED off&amp;nbsp;&amp;nbsp;&lt;span&gt;&lt;br&gt;&lt;/span&gt;" style="rounded=0;whiteSpace=wrap;html=1;fontSize=16;" vertex="1" parent="CwfMdXBka9Mv6ZWWtT7S-2">
          <mxGeometry x="20" y="320" width="120" height="40" as="geometry" />
        </mxCell>
        <mxCell id="CwfMdXBka9Mv6ZWWtT7S-17" style="edgeStyle=orthogonalEdgeStyle;rounded=0;orthogonalLoop=1;jettySize=auto;html=1;entryX=0.5;entryY=0;entryDx=0;entryDy=0;fontSize=16;" edge="1" parent="WIyWlLk6GJQsqaUBKTNV-1" source="CwfMdXBka9Mv6ZWWtT7S-8" target="CwfMdXBka9Mv6ZWWtT7S-2">
          <mxGeometry relative="1" as="geometry">
            <Array as="points">
              <mxPoint x="450" y="170" />
              <mxPoint x="110" y="170" />
            </Array>
          </mxGeometry>
        </mxCell>
        <mxCell id="CwfMdXBka9Mv6ZWWtT7S-8" value="&lt;font style=&quot;font-size: 15px;&quot;&gt;test all&amp;nbsp;Component&lt;/font&gt;" style="whiteSpace=wrap;html=1;rounded=1;glass=0;strokeWidth=1;shadow=0;" vertex="1" parent="WIyWlLk6GJQsqaUBKTNV-1">
          <mxGeometry x="360" y="70" width="180" height="60" as="geometry" />
        </mxCell>
        <mxCell id="CwfMdXBka9Mv6ZWWtT7S-18" value="Red&#xa;light  func" style="swimlane;startSize=40;horizontal=1;childLayout=treeLayout;horizontalTree=0;resizable=0;containerType=tree;verticalAlign=bottom;textDirection=rtl;" vertex="1" parent="WIyWlLk6GJQsqaUBKTNV-1">
          <mxGeometry x="340" y="220" width="778" height="640" as="geometry" />
        </mxCell>
        <mxCell id="CwfMdXBka9Mv6ZWWtT7S-19" value="&lt;span&gt;Red LED on&amp;nbsp;&lt;/span&gt;" style="rounded=0;whiteSpace=wrap;html=1;fontSize=16;" vertex="1" parent="CwfMdXBka9Mv6ZWWtT7S-18">
          <mxGeometry x="409.1425" y="60" width="120" height="30" as="geometry" />
        </mxCell>
        <mxCell id="CwfMdXBka9Mv6ZWWtT7S-20" value="" style="edgeStyle=orthogonalEdgeStyle;rounded=0;orthogonalLoop=1;jettySize=auto;html=1;" edge="1" parent="CwfMdXBka9Mv6ZWWtT7S-18" source="CwfMdXBka9Mv6ZWWtT7S-19" target="CwfMdXBka9Mv6ZWWtT7S-21">
          <mxGeometry relative="1" as="geometry" />
        </mxCell>
        <mxCell id="CwfMdXBka9Mv6ZWWtT7S-21" value="&lt;span&gt;for loop&amp;nbsp; 1 to 180&amp;nbsp;&amp;nbsp;&lt;br&gt;in each :&amp;nbsp;&lt;br&gt;&lt;/span&gt;" style="rounded=0;whiteSpace=wrap;html=1;fontSize=16;" vertex="1" parent="CwfMdXBka9Mv6ZWWtT7S-18">
          <mxGeometry x="284.1425" y="140" width="370" height="40" as="geometry" />
        </mxCell>
        <mxCell id="CwfMdXBka9Mv6ZWWtT7S-22" value="" style="edgeStyle=orthogonalEdgeStyle;rounded=0;orthogonalLoop=1;jettySize=auto;html=1;" edge="1" parent="CwfMdXBka9Mv6ZWWtT7S-18" source="CwfMdXBka9Mv6ZWWtT7S-21" target="CwfMdXBka9Mv6ZWWtT7S-23">
          <mxGeometry relative="1" as="geometry">
            <mxPoint x="-660" y="310" as="sourcePoint" />
          </mxGeometry>
        </mxCell>
        <mxCell id="CwfMdXBka9Mv6ZWWtT7S-23" value="&lt;span&gt;end of loop&amp;nbsp;&lt;br&gt;&lt;/span&gt;" style="rounded=0;whiteSpace=wrap;html=1;fontSize=16;" vertex="1" parent="CwfMdXBka9Mv6ZWWtT7S-18">
          <mxGeometry x="181.71999999999997" y="230" width="120" height="40" as="geometry" />
        </mxCell>
        <mxCell id="CwfMdXBka9Mv6ZWWtT7S-28" value="&lt;span&gt;in each: S1&lt;br&gt;move the serve 1 degree&lt;br&gt;&lt;/span&gt;" style="rounded=0;whiteSpace=wrap;html=1;fontSize=16;" vertex="1" parent="CwfMdXBka9Mv6ZWWtT7S-18">
          <mxGeometry x="490.315" y="230" width="266.25" height="46" as="geometry" />
        </mxCell>
        <mxCell id="CwfMdXBka9Mv6ZWWtT7S-29" value="" style="edgeStyle=orthogonalEdgeStyle;rounded=0;orthogonalLoop=1;jettySize=auto;html=1;" edge="1" parent="CwfMdXBka9Mv6ZWWtT7S-18" source="CwfMdXBka9Mv6ZWWtT7S-21" target="CwfMdXBka9Mv6ZWWtT7S-28">
          <mxGeometry relative="1" as="geometry">
            <mxPoint x="-565" y="180" as="sourcePoint" />
            <mxPoint x="-565" y="230" as="targetPoint" />
          </mxGeometry>
        </mxCell>
        <mxCell id="CwfMdXBka9Mv6ZWWtT7S-30" value="" style="edgeStyle=orthogonalEdgeStyle;rounded=0;orthogonalLoop=1;jettySize=auto;html=1;" edge="1" target="CwfMdXBka9Mv6ZWWtT7S-31" source="CwfMdXBka9Mv6ZWWtT7S-28" parent="CwfMdXBka9Mv6ZWWtT7S-18">
          <mxGeometry relative="1" as="geometry">
            <mxPoint x="-166.90000000000003" y="400" as="sourcePoint" />
            <mxPoint x="-565" y="230" as="targetPoint" />
          </mxGeometry>
        </mxCell>
        <mxCell id="CwfMdXBka9Mv6ZWWtT7S-31" value="&lt;span&gt;in each: S2&amp;nbsp;&lt;br&gt;Get a calculated distance from an ultrasonic sensor&lt;br&gt;&lt;/span&gt;" style="rounded=0;whiteSpace=wrap;html=1;fontSize=16;" vertex="1" parent="CwfMdXBka9Mv6ZWWtT7S-18">
          <mxGeometry x="488.44" y="326" width="270" height="74" as="geometry" />
        </mxCell>
        <mxCell id="CwfMdXBka9Mv6ZWWtT7S-32" value="" style="edgeStyle=orthogonalEdgeStyle;rounded=0;orthogonalLoop=1;jettySize=auto;html=1;" edge="1" target="CwfMdXBka9Mv6ZWWtT7S-33" source="CwfMdXBka9Mv6ZWWtT7S-31" parent="CwfMdXBka9Mv6ZWWtT7S-18">
          <mxGeometry relative="1" as="geometry">
            <mxPoint x="-85.83750000000003" y="496" as="sourcePoint" />
            <mxPoint x="-565" y="230" as="targetPoint" />
          </mxGeometry>
        </mxCell>
        <mxCell id="CwfMdXBka9Mv6ZWWtT7S-33" value="&lt;span&gt;in each:&amp;nbsp;&lt;br&gt;Save the measured distance&lt;br&gt;&lt;/span&gt;" style="rounded=0;whiteSpace=wrap;html=1;fontSize=16;" vertex="1" parent="CwfMdXBka9Mv6ZWWtT7S-18">
          <mxGeometry x="503.44" y="450" width="240" height="50" as="geometry" />
        </mxCell>
        <mxCell id="CwfMdXBka9Mv6ZWWtT7S-34" value="" style="edgeStyle=orthogonalEdgeStyle;rounded=0;orthogonalLoop=1;jettySize=auto;html=1;" edge="1" target="CwfMdXBka9Mv6ZWWtT7S-35" source="CwfMdXBka9Mv6ZWWtT7S-23" parent="CwfMdXBka9Mv6ZWWtT7S-18">
          <mxGeometry relative="1" as="geometry">
            <mxPoint x="-166.83749999999998" y="400" as="sourcePoint" />
          </mxGeometry>
        </mxCell>
        <mxCell id="CwfMdXBka9Mv6ZWWtT7S-35" value="&lt;span&gt;for loop 1 to 180&amp;nbsp;&lt;br&gt;&lt;/span&gt;in each :&amp;nbsp;&lt;span&gt;&lt;br&gt;&lt;/span&gt;" style="rounded=0;whiteSpace=wrap;html=1;fontSize=16;" vertex="1" parent="CwfMdXBka9Mv6ZWWtT7S-18">
          <mxGeometry x="176.71999999999997" y="320" width="130" height="61" as="geometry" />
        </mxCell>
        <mxCell id="CwfMdXBka9Mv6ZWWtT7S-36" value="" style="edgeStyle=orthogonalEdgeStyle;rounded=0;orthogonalLoop=1;jettySize=auto;html=1;" edge="1" target="CwfMdXBka9Mv6ZWWtT7S-37" source="CwfMdXBka9Mv6ZWWtT7S-35" parent="CwfMdXBka9Mv6ZWWtT7S-18">
          <mxGeometry relative="1" as="geometry">
            <mxPoint x="-320.93749999999994" y="490" as="sourcePoint" />
          </mxGeometry>
        </mxCell>
        <mxCell id="CwfMdXBka9Mv6ZWWtT7S-49" style="edgeStyle=orthogonalEdgeStyle;rounded=0;orthogonalLoop=1;jettySize=auto;html=1;exitX=0.25;exitY=1;exitDx=0;exitDy=0;entryX=0.5;entryY=0;entryDx=0;entryDy=0;fontSize=16;" edge="1" parent="CwfMdXBka9Mv6ZWWtT7S-18" source="CwfMdXBka9Mv6ZWWtT7S-37" target="CwfMdXBka9Mv6ZWWtT7S-42">
          <mxGeometry relative="1" as="geometry">
            <Array as="points">
              <mxPoint x="242.12500000000006" y="490" />
            </Array>
          </mxGeometry>
        </mxCell>
        <mxCell id="CwfMdXBka9Mv6ZWWtT7S-37" value="&lt;span&gt;Do&amp;nbsp;&lt;br&gt;&lt;/span&gt;in each: S1&lt;br&gt;in each: S2&lt;span&gt;&lt;br&gt;&lt;/span&gt;" style="rounded=0;whiteSpace=wrap;html=1;fontSize=16;" vertex="1" parent="CwfMdXBka9Mv6ZWWtT7S-18">
          <mxGeometry x="181.71999999999997" y="431" width="120" height="59" as="geometry" />
        </mxCell>
        <mxCell id="CwfMdXBka9Mv6ZWWtT7S-42" value="if ans from in each: S2 = Save Data in the degree" style="rhombus;whiteSpace=wrap;html=1;fontSize=16;" vertex="1" parent="CwfMdXBka9Mv6ZWWtT7S-18">
          <mxGeometry x="20" y="540" width="443.44" height="80" as="geometry" />
        </mxCell>
        <mxCell id="CwfMdXBka9Mv6ZWWtT7S-52" style="edgeStyle=orthogonalEdgeStyle;rounded=0;orthogonalLoop=1;jettySize=auto;html=1;fontSize=16;" edge="1" parent="WIyWlLk6GJQsqaUBKTNV-1" source="CwfMdXBka9Mv6ZWWtT7S-42">
          <mxGeometry relative="1" as="geometry">
            <mxPoint x="605" y="1050" as="targetPoint" />
            <Array as="points">
              <mxPoint x="582" y="1050" />
            </Array>
          </mxGeometry>
        </mxCell>
        <mxCell id="CwfMdXBka9Mv6ZWWtT7S-53" value="no" style="text;strokeColor=none;fillColor=none;html=1;fontSize=24;fontStyle=1;verticalAlign=middle;align=center;" vertex="1" parent="WIyWlLk6GJQsqaUBKTNV-1">
          <mxGeometry x="565" y="900" width="100" height="40" as="geometry" />
        </mxCell>
        <mxCell id="CwfMdXBka9Mv6ZWWtT7S-56" value="shot" style="swimlane;startSize=20;horizontal=1;childLayout=treeLayout;horizontalTree=0;resizable=0;containerType=tree;fontSize=16;" vertex="1" parent="WIyWlLk6GJQsqaUBKTNV-1">
          <mxGeometry x="605" y="940" width="320" height="200" as="geometry" />
        </mxCell>
        <mxCell id="CwfMdXBka9Mv6ZWWtT7S-57" value="move the servo that&amp;nbsp;Responsible for the trigger" style="whiteSpace=wrap;html=1;fontSize=16;" vertex="1" parent="CwfMdXBka9Mv6ZWWtT7S-56">
          <mxGeometry x="20" y="40" width="280" height="50" as="geometry" />
        </mxCell>
        <mxCell id="CwfMdXBka9Mv6ZWWtT7S-58" value="Led trigger on&amp;nbsp;" style="whiteSpace=wrap;html=1;fontSize=16;" vertex="1" parent="CwfMdXBka9Mv6ZWWtT7S-56">
          <mxGeometry x="90" y="140" width="140" height="40" as="geometry" />
        </mxCell>
        <mxCell id="CwfMdXBka9Mv6ZWWtT7S-59" value="" style="edgeStyle=elbowEdgeStyle;elbow=vertical;html=1;rounded=0;fontSize=16;" edge="1" parent="CwfMdXBka9Mv6ZWWtT7S-56" source="CwfMdXBka9Mv6ZWWtT7S-57" target="CwfMdXBka9Mv6ZWWtT7S-58">
          <mxGeometry relative="1" as="geometry" />
        </mxCell>
        <mxCell id="CwfMdXBka9Mv6ZWWtT7S-62" value="" style="shape=doubleArrow;whiteSpace=wrap;html=1;fontSize=16;" vertex="1" parent="WIyWlLk6GJQsqaUBKTNV-1">
          <mxGeometry x="190" y="330" width="140" height="60" as="geometry" />
        </mxCell>
      </root>
    </mxGraphModel>
  </diagram>
</mxfile>
